<svg xmlns="http://www.w3.org/2000/svg" xmlns:svg="http://www.w3.org/2000/svg" xmlns:xlink="http://www.w3.org/1999/xlink" id="svg2" width="100%" height="100%" enable-background="new 0 0 64 64" version="1.1" viewBox="0 0 64 64"><metadata id="metadata16"/><defs id="defs14"><linearGradient id="SVGID_2_" x1="-1073.2" x2="-1073.2" y1="126.85" y2="0" gradientTransform="matrix(-1.0000166,0,0,1.0000166,-1008.2207,-0.00100002)" gradientUnits="userSpaceOnUse"><stop id="stop15" offset=".011" stop-color="#1b3967"/><stop id="stop17" offset=".467" stop-color="#13b5ea"/><stop id="stop19" offset=".995" stop-color="#002b5c"/></linearGradient><linearGradient id="SVGID_1_" x1="-1807.2" x2="-1807.2" y1="125.86" y2="0" gradientTransform="translate(1925.9953,9.9988343)" gradientUnits="userSpaceOnUse"><stop id="stop4" offset=".011" stop-color="#1b3967"/><stop id="stop6" offset=".467" stop-color="#13b5ea"/><stop id="stop8" offset=".995" stop-color="#002b5c"/></linearGradient><linearGradient id="linearGradient3019" x1="-1807.2" x2="-1807.2" y1="125.86" y2="0" gradientTransform="matrix(1.0000166,0,0,1.0000166,1916.6379,-19.937399)" gradientUnits="userSpaceOnUse" xlink:href="#SVGID_1_"/><linearGradient id="linearGradient3048" x1="-1073.2" x2="-1073.2" y1="126.85" y2="0" gradientTransform="matrix(-1.0000166,0,0,1.0000166,-1007.6106,-19.937399)" gradientUnits="userSpaceOnUse" xlink:href="#SVGID_2_"/><linearGradient id="linearGradient3058" x1="-1807.2" x2="-1807.2" y1="125.86" y2="0" gradientTransform="matrix(1.0000166,0,0,1.0000166,1916.6379,-19.937399)" gradientUnits="userSpaceOnUse" xlink:href="#SVGID_1_"/><linearGradient id="linearGradient3060" x1="-1073.2" x2="-1073.2" y1="126.85" y2="0" gradientTransform="matrix(-1.0000166,0,0,1.0000166,-1007.6106,-19.937399)" gradientUnits="userSpaceOnUse" xlink:href="#SVGID_2_"/></defs><g id="g3050" transform="matrix(0.34819669,0,0,0.38000549,1.8469324,14.646028)"><path style="fill:url(#linearGradient3058)" id="path10" d="m 136.89835,-5.7481628 c 0.077,1.313022 -1.78603,0.968016 -1.78603,2.293038 0,38.5516398 -44.720737,96.8326458 -89.848486,108.1918348 l 0,1.18201 C 105.22183,100.40863 171.99594,39.117582 173.50596,-19.933399 l -36.60061,14.1892362 z"/><path style="fill:#e96d1f" id="path12" d="m 120.83809,-1.9770998 c 0.077,1.31302201 0.121,2.63304401 0.121,3.958066 0,38.5516388 -30.700509,90.4985348 -75.828258,101.8617238 l 0,1.63703 C 104.19681,101.65665 150.94259,42.455637 150.94259,-3.7221288 c 0,-2.37504 -0.125,-4.729079 -0.37101,-7.0561172 l -29.73049,8.7961462 z"/><path style="fill:url(#linearGradient3060)" id="path21" d="m 37.205701,-5.7481628 c -0.077,1.313022 1.787029,0.968016 1.787029,2.293038 0,38.5516398 46.558773,97.3676558 91.68952,108.7318348 l 0,1.63903 C 70.728257,101.39565 2.1201185,39.114582 0.6100933,-19.936399 L 37.209701,-5.7471628 z"/><path style="fill:#a0ce67" id="path23" d="m 55.338002,-1.0050838 c -0.076,1.31302201 -0.120002,2.630044 -0.120002,3.957066 0,38.5516398 30.699509,90.4985388 75.82826,101.8617278 l 0,1.63902 C 72.001278,103.66269 25.234502,43.427654 25.234502,-2.7491128 c 0,-2.375039 0.128002,-4.729078 0.371006,-7.056117 l 29.730494,8.798146 z"/><path style="fill:#439639" id="path25" d="m 25.319503,-10.354239 7.617127,2.7220452 c -0.041,0.962016 -0.066,2.254037 -0.066,3.225053 0,41.2196848 37.271618,98.2056618 87.27345,107.1218108 3.24505,1.08802 7.53812,2.07704 10.93218,2.93105 l 0,1.63803 C 65.821176,101.72366 19.974415,35.416521 25.314503,-10.358239 z"/><path style="fill:#d9541e" id="path27" d="m 150.94859,-11.177253 -7.83313,2.6250442 c 0.041,0.963016 0.191,2.203036 0.191,3.173052 0,41.2196848 -37.27262,98.2066678 -87.275447,107.1218168 -3.243054,1.08901 -7.538125,2.07703 -10.930181,2.93204 l 0,1.63903 C 113.44597,97.653591 156.28268,34.593507 150.94259,-11.178253 z"/></g></svg>