<svg xmlns="http://www.w3.org/2000/svg" xmlns:svg="http://www.w3.org/2000/svg" id="svg8" width="36" height="35.65" version="1.1" viewBox="0 0 9.525 9.433"><metadata id="metadata5"/><g id="layer1" transform="translate(-22.064358,-124.4235)"><rect style="opacity:1;fill:#999;fill-opacity:1;fill-rule:nonzero;stroke:none;stroke-width:.69048542;stroke-linecap:round;stroke-linejoin:miter;stroke-miterlimit:4;stroke-dasharray:none;stroke-dashoffset:0;stroke-opacity:1;paint-order:markers stroke fill" id="rect836" width="9.525" height="9.433" x="22.064" y="124.424"/><path style="opacity:1;fill:#b3b3b3;fill-opacity:1;fill-rule:nonzero;stroke:none;stroke-width:4.20547915;stroke-linecap:round;stroke-linejoin:miter;stroke-miterlimit:4;stroke-dasharray:none;stroke-dashoffset:0;stroke-opacity:1;paint-order:markers stroke fill" id="path819" d="m 101.39258,475.59961 a 7.1875005,7.1875005 0 0 0 -7.187502,7.1875 7.1875005,7.1875005 0 0 0 2.851563,5.72266 13.705357,13.705357 0 0 0 -9.369141,12.98242 13.705357,13.705357 0 0 0 0.746094,4.41992 h 25.914066 a 13.705357,13.705357 0 0 0 0.75,-4.41992 13.705357,13.705357 0 0 0 -9.36133,-12.98438 7.1875005,7.1875005 0 0 0 2.84375,-5.7207 7.1875005,7.1875005 0 0 0 -7.1875,-7.1875 z" transform="scale(0.26458333)"/></g></svg>